<svg width="32" height="32" viewBox="0 0 32 32" fill="none" xmlns="http://www.w3.org/2000/svg">
<rect width="32" height="32" rx="5" fill="#0D1336"/>
<mask id="mask0_3_2" style="mask-type:alpha" maskUnits="userSpaceOnUse" x="2" y="2" width="28" height="28">
<rect x="2" y="2" width="28" height="28" fill="url(#paint0_linear_3_2)"/>
</mask>
<g mask="url(#mask0_3_2)">
<path d="M8.41667 28.3174V27.4424C8.41667 24.732 8.97307 22.5789 10.0859 20.9831C11.1987 19.3871 12.7206 17.7261 14.6516 16C12.7132 14.2739 11.1876 12.6129 10.0748 11.0169C8.96199 9.42107 8.40559 7.26799 8.40559 4.55762V3.68262H10.1556V4.55762C10.1556 4.86135 10.1641 5.14854 10.1813 5.41921C10.1984 5.69007 10.2279 5.95636 10.2699 6.21808L21.719 6.21808C21.7608 5.95636 21.7904 5.69007 21.8077 5.41921C21.8248 5.14854 21.8333 4.86135 21.8333 4.55762V3.68262H23.5833V4.55762C23.5833 7.26799 23.0269 9.42107 21.9141 11.0169C20.8013 12.6129 19.2794 14.2739 17.3484 16C19.2794 17.7185 20.8013 19.3776 21.9141 20.9773C23.0269 22.577 23.5833 24.732 23.5833 27.4424V28.3174H21.8333V27.4424C21.8333 27.1387 21.8248 26.8515 21.8077 26.5808C21.7904 26.3099 21.7608 26.0436 21.719 25.7819H10.281C10.2392 26.0436 10.2096 26.3099 10.1923 26.5808C10.1752 26.8515 10.1667 27.1387 10.1667 27.4424V28.3174H8.41667ZM12.0266 10.75H19.9623C20.2674 10.3283 20.5366 9.89337 20.7699 9.44537C21.0033 8.99737 21.2014 8.50494 21.3643 7.96808L10.6243 7.96808C10.7948 8.49308 10.9931 8.98065 11.219 9.43079C11.4448 9.88093 11.714 10.3207 12.0266 10.75ZM16 14.8535C16.4562 14.4482 16.8933 14.0504 17.3113 13.66C17.7294 13.2695 18.1225 12.8829 18.4905 12.5H13.4984C13.8663 12.8829 14.2612 13.2695 14.6831 13.66C15.1049 14.0504 15.5438 14.4482 16 14.8535ZM13.5095 19.5H18.4905C18.1225 19.1171 17.7294 18.7305 17.3113 18.34C16.8933 17.9496 16.4562 17.5518 16 17.1465C15.5438 17.5518 15.1067 17.9496 14.6887 18.34C14.2706 18.7305 13.8775 19.1171 13.5095 19.5ZM10.6357 24.0319H21.3643C21.1938 23.5069 20.9957 23.0193 20.7699 22.5692C20.544 22.1191 20.2748 21.6793 19.9623 21.25H12.0377C11.7252 21.6793 11.4542 22.1161 11.2245 22.5602C10.9949 23.0045 10.7986 23.4951 10.6357 24.0319Z" fill="#BF407F"/>
</g>
<defs>
<linearGradient id="paint0_linear_3_2" x1="16" y1="2" x2="16" y2="30" gradientUnits="userSpaceOnUse">
<stop offset="0.254808" stop-color="#99D4FF"/>
<stop offset="1" stop-color="#BF407F"/>
</linearGradient>
</defs>
</svg>
